HIERARCHY
ROOT RootJoint
{
    OFFSET   0.000000   0.000000   0.000000
    CHANNELS 6 Xposition Yposition Zposition Xrotation Yrotation Zrotation
    JOINT pelvis_lowerback
    {
        OFFSET   0.000000   0.093605   0.000000
        CHANNELS 3 Xrotation Yrotation Zrotation
        JOINT lowerback_torso
        {
            OFFSET   0.000000   0.100000   0.000000
            CHANNELS 3 Xrotation Yrotation Zrotation
            JOINT torso_head
            {
                OFFSET   0.000000   0.282350   0.000000
                CHANNELS 3 Xrotation Yrotation Zrotation
                End Site
                {
                    OFFSET   0.000000   0.192650   0.000000
                }
            }
            JOINT rTorso_Clavicle
            {
                OFFSET  -0.001000   0.157500   0.000000
                CHANNELS 3 Xrotation Yrotation Zrotation
                JOINT rShoulder
                {
                    OFFSET  -0.117647   0.000000   0.000000
                    CHANNELS 3 Xrotation Yrotation Zrotation
                    JOINT rElbow
                    {
                        OFFSET  -0.245000   0.000000   0.000000
                        CHANNELS 3 Xrotation Yrotation Zrotation
                        JOINT rWrist
                        {
                            OFFSET  -0.240000   0.000000   0.000000
                            CHANNELS 3 Xrotation Yrotation Zrotation
                            End Site
                            {
                                OFFSET  -0.116353  -0.002500   0.000000
                            }
                        }
                    }
                }
            }
            JOINT lTorso_Clavicle
            {
                OFFSET   0.001000   0.157500   0.000000
                CHANNELS 3 Xrotation Yrotation Zrotation
                JOINT lShoulder
                {
                    OFFSET   0.117647   0.000000   0.000000
                    CHANNELS 3 Xrotation Yrotation Zrotation
                    JOINT lElbow
                    {
                        OFFSET   0.245000   0.000000   0.000000
                        CHANNELS 3 Xrotation Yrotation Zrotation
                        JOINT lWrist
                        {
                            OFFSET   0.240000   0.000000   0.000000
                            CHANNELS 3 Xrotation Yrotation Zrotation
                            End Site
                            {
                                OFFSET   0.116353  -0.002500   0.000000
                            }
                        }
                    }
                }
            }
        }
    }
    JOINT rHip
    {
        OFFSET  -0.100000  -0.051395   0.000000
        CHANNELS 3 Xrotation Yrotation Zrotation
        JOINT rKnee
        {
            OFFSET   0.000000  -0.410000   0.000000
            CHANNELS 3 Xrotation Yrotation Zrotation
            JOINT rAnkle
            {
                OFFSET   0.000000  -0.390000   0.000000
                CHANNELS 3 Xrotation Yrotation Zrotation
                JOINT rToeJoint
                {
                    OFFSET   0.000000  -0.050000   0.130000
                    CHANNELS 3 Xrotation Yrotation Zrotation
                    End Site
                    {
                        OFFSET  -0.010000   0.002000   0.060000
                    }
                }
            }
        }
    }
    JOINT lHip
    {
        OFFSET   0.100000  -0.051395   0.000000
        CHANNELS 3 Xrotation Yrotation Zrotation
        JOINT lKnee
        {
            OFFSET   0.000000  -0.410000   0.000000
            CHANNELS 3 Xrotation Yrotation Zrotation
            JOINT lAnkle
            {
                OFFSET   0.000000  -0.390000   0.000000
                CHANNELS 3 Xrotation Yrotation Zrotation
                JOINT lToeJoint
                {
                    OFFSET   0.000000  -0.050000   0.130000
                    CHANNELS 3 Xrotation Yrotation Zrotation
                    End Site
                    {
                        OFFSET   0.010000   0.002000   0.060000
                    }
                }
            }
        }
    }
}
MOTION
Frames: 14
Frame Time:   0.008333
 -2.376719   0.925631   3.975860   0.000000   0.000000   0.000000   0.000000   0.000000   0.000000   0.000000   0.000000   0.000000   0.000000   0.000000   0.000000   0.000000   0.000000   0.000000   0.000000   0.000000   0.000000   0.000000   0.000000   0.000000   0.000000   0.000000   0.000000   0.000000   0.000000   0.000000   0.000000   0.000000   0.000000   0.000000   0.000000   0.000000   0.000000   0.000000   0.000000   0.000000   0.000000   0.000000   0.000000   0.000000   0.000000   0.000000   0.000000   0.000000   0.000000   0.000000   0.000000   0.000000   0.000000   0.000000   0.000000   0.000000   0.000000   0.000000   0.000000   0.000000   0.000000   0.000000   0.000000
 -2.376755   0.926026   3.974267  -0.569414   0.042087  -0.027479   0.980294   0.067718   0.039343   0.339348  -0.231337  -0.024032  -0.327491   0.127137  -0.003810   0.147753  -0.290916  -0.075985   0.431180  -0.033229   2.349149   0.043559   2.184952  -0.026010   0.087605  -0.840015  -2.340752   0.259618   0.298541  -0.157069   0.642949   0.423345  -2.190953   0.044746  -2.148473   0.031628   0.083994   0.595644   2.691329  -0.108185  -0.144583  -0.120110   1.776011   0.002252  -0.001636  -1.423962  -0.482542  -0.160335  -0.109775  -0.000295   0.000560  -0.250910  -0.001682   0.226593   1.975502  -0.003418   0.000782  -1.180124   0.338686   0.079591   0.336671  -0.000816   0.001115
 -2.376883   0.926716   3.972085  -1.257405   0.051029  -0.048461   2.109045   0.145124   0.061642   0.915569  -0.447424  -0.062720  -0.568837   0.246414  -0.003049   0.295579  -0.487735   0.490718   0.848927   0.058933   5.208701   0.100116   4.309875  -0.050900   0.217061  -1.029960  -3.990973   0.519751   0.520844  -0.982651   1.286686   0.734331  -4.923131   0.103599  -4.223748   0.060864   0.224326   0.617176   4.722445  -0.190886  -0.294765  -0.376987   3.644596   0.006125  -0.003951  -2.750036  -0.938276  -0.323771  -0.252058  -0.000781   0.001191  -0.512716   0.009625   0.616400   4.040658  -0.009308   0.001575  -2.271382   0.660994   0.163421   0.643750  -0.001851   0.001848
 -2.377086   0.927340   3.969594  -1.934120   0.028905  -0.060259   3.277076   0.225723   0.060693   1.569003  -0.640355  -0.116947  -0.765276   0.357557  -0.000345   0.433009  -0.576282   1.458676   1.246533   0.250113   8.393343   0.156101   6.322065  -0.071030   0.359871  -0.960451  -4.924125   0.763052   0.640866  -2.217058   1.927586   0.938955  -8.003447   0.162471  -6.184778   0.084415   0.381051   0.418971   5.996452  -0.291659  -0.439458  -0.749891   5.404006   0.010392  -0.006477  -3.987571  -1.362205  -0.487450  -0.383149  -0.001245   0.001639  -0.815083   0.023364   1.133722   5.974662  -0.015866   0.002403  -3.288739   0.962718   0.249265   0.927054  -0.002918   0.002300
 -2.377355   0.927636   3.967002  -2.567729  -0.019667  -0.064465   4.445863   0.306833   0.035196   2.241050  -0.813595  -0.190323  -0.935349   0.461268   0.004403   0.554784  -0.575979   2.661260   1.620789   0.524396  11.795798   0.205218   8.220463  -0.085966   0.509298  -0.751756  -5.330637   0.982510   0.673820  -3.700277   2.555364   1.045442 -11.271019   0.214345  -8.033164   0.102002   0.546587   0.100896   6.677945  -0.412232  -0.575808  -1.215032   7.033749   0.014378  -0.008980  -5.145055  -1.756073  -0.649939  -0.510705  -0.001687   0.001977  -1.153877   0.034631   1.752531   7.757341  -0.022114   0.003327  -4.240163   1.244653   0.335946   1.179035  -0.003845   0.002532
 -2.377712   0.927398   3.964469  -3.150904  -0.087156  -0.061396   5.591399   0.387191  -0.019552   2.904769  -0.969975  -0.293645  -1.085159   0.557865   0.013167   0.656950  -0.514032   3.992735   1.968685   0.861697  15.347462   0.244680  10.006316  -0.095893   0.660202  -0.462135  -5.373350   1.174685   0.645104  -5.353567   3.141732   1.067176 -14.518488   0.255225  -9.771400   0.113650   0.714383  -0.288114   6.884600  -0.543183  -0.702289  -1.750020   8.542643   0.017731  -0.011255  -6.228003  -2.121785  -0.810103  -0.635002  -0.002083   0.002220  -1.516305   0.039976   2.451813   9.399855  -0.027587   0.004367  -5.130229   1.507760   0.422449   1.402304  -0.004579   0.002617
 -2.378161   0.926468   3.962109  -3.683417  -0.166155  -0.053529   6.696585   0.465228  -0.103580   3.544394  -1.112951  -0.424533  -1.217674   0.647850   0.022160   0.738249  -0.416810   5.378271   2.288705   1.241601  18.999237   0.273798  11.681537  -0.101253   0.807451  -0.133363  -5.176493   1.338259   0.578922  -7.082114   3.685616   1.027078 -17.681806   0.284358 -11.402369   0.120030   0.878305  -0.712232   6.777135  -0.674883  -0.818276  -2.335022   9.943184   0.020343  -0.013172  -7.241024  -2.461111  -0.966961  -0.754508  -0.002412   0.002374  -1.890106   0.037219   3.213725  10.916727  -0.032049   0.005497  -5.962735   1.753115   0.508032   1.600906  -0.005111   0.002611
 -2.378537   0.924156   3.959533  -3.906728  -0.308983  -0.136272   7.504774   0.535884  -0.068410   4.089099  -1.150903  -0.539006  -1.329371   0.566478  -0.042632   0.958757  -0.254182   6.150713   2.780965   1.673717  22.481797   0.296860  13.557845  -0.112759   0.913384   0.060619  -4.067732   1.535597   0.533293  -8.089788   3.938888   0.870285 -20.934122   0.302165 -13.131695   0.121437   0.936598  -1.005465   5.706747  -1.303430  -1.160698  -2.809186  11.631256   0.022331  -0.020156  -7.917579  -2.960675  -0.983172  -0.724605  -0.001784   0.001629  -2.478862   0.237386   4.033570  11.959330  -0.031856   0.007279  -6.431414   2.104373   0.504788   1.666654  -0.004482   0.002413
 -2.378842   0.920683   3.957058  -4.091501  -0.415284  -0.233746   8.274798   0.589175  -0.011524   4.582782  -1.188194  -0.628270  -1.435424   0.484404  -0.104907   1.144746  -0.069349   6.688368   3.204053   2.123810  25.610404   0.303251  15.330088  -0.118135   1.033413   0.362786  -3.029609   1.700493   0.461775  -8.847957   4.154242   0.694396 -23.855667   0.303915 -14.765037   0.119151   0.990607  -1.379742   4.692742  -1.935745  -1.495228  -3.246046  13.226859   0.022918  -0.024806  -8.542897  -3.431216  -1.004853  -0.661238  -0.001134   0.000763  -3.063243   0.420993   4.815125  12.855346  -0.030297   0.008522  -6.870066   2.434348   0.505135   1.741256  -0.003992   0.002303
 -2.379083   0.916162   3.954768  -4.256078  -0.492505  -0.332739   9.001784   0.636363   0.053941   5.040845  -1.226449  -0.698528  -1.532316   0.407646  -0.162275   1.303492   0.109489   7.071381   3.568509   2.562866  28.444024   0.298484  16.989980  -0.118653   1.149522   0.690685  -2.190216   1.842805   0.386957  -9.431170   4.340674   0.522943 -26.493795   0.295045 -16.294541   0.114014   1.042301  -1.770832   3.881390  -2.534860  -1.803138  -3.657284  14.712866   0.022546  -0.027319  -9.127029  -3.869908  -1.030548  -0.600720  -0.000645   0.000136  -3.629227   0.584492   5.543114  13.669413  -0.028145   0.009336  -7.280870   2.742051   0.507884   1.808835  -0.003527   0.002175
 -2.379268   0.910671   3.952690  -4.405443  -0.548963  -0.430499   9.682399   0.681450   0.125269   5.467045  -1.262909  -0.752873  -1.620990   0.336233  -0.215566   1.444856   0.268788   7.346710   3.886891   2.977530  31.028896   0.286572  18.539288  -0.115663   1.257885   1.005918  -1.515555   1.971640   0.324351  -9.885542   4.506461   0.367612 -28.891977   0.279548 -17.721584   0.106906   1.088351  -2.144799   3.243841  -3.095336  -2.085738  -4.043907  16.097440   0.021557  -0.028304  -9.672958  -4.278660  -1.059236  -0.544631  -0.000287  -0.000297  -4.169730   0.730583   6.215763  14.420029  -0.025720   0.009782  -7.664975   3.028842   0.512462   1.870821  -0.003096   0.002037
 -2.379689   0.909360   3.950580  -4.783569  -0.242292  -0.406254  10.614636   0.593862   0.103408   6.017688  -1.399254  -0.801943  -1.711077   0.264919  -0.263957   1.556550   0.465455   7.871210   4.150029   3.396497  33.515994   0.275574  19.968279  -0.113634   1.352412   1.217184  -1.022794   2.019132   0.142193 -10.487476   4.608135   0.147499 -31.135619   0.265182 -19.053210   0.100216   1.128962  -2.466351   2.841906  -3.607182  -2.208568  -4.102102  17.723556   0.016682  -0.021575 -10.163990  -4.377734  -0.851081  -0.365188  -0.000547  -0.000215  -4.848991   1.037652   6.366710  15.976213  -0.020180   0.018599  -7.471884   3.386951   0.284167   1.999634  -0.002334   0.002859
 -2.380151   0.908324   3.949054  -5.053145  -0.045447  -0.313139  11.329652   0.588736   0.045577   6.508939  -1.487994  -0.881902  -1.763109   0.202125  -0.320334   1.688777   0.606376   8.261768   4.401429   3.781790  35.853239   0.260532  21.310200  -0.108786   1.444060   1.450031  -0.367466   2.097184   0.035989 -10.949719   4.722874  -0.030431 -33.241510   0.247416 -20.301879   0.091383   1.169362  -2.817718   2.316486  -4.058747  -2.452321  -4.248782  19.023814   0.012608  -0.018814 -10.600378  -4.738576  -0.897454  -0.300758  -0.000407  -0.000436  -5.328206   1.251175   6.403201  17.129263  -0.015680   0.020284  -7.655532   3.649842   0.225498   1.709735  -0.001906   0.000349
 -2.380677   0.907679   3.947713  -5.099221   0.090551  -0.270742  11.813163   0.625464  -0.037397   6.866450  -1.481417  -0.867930  -1.739844   0.102345  -0.372735   1.796831   0.655371   8.341074   4.670109   4.103877  37.667197   0.237675  22.613745  -0.102272   1.479420   1.709889   0.903658   2.204012   0.013575 -11.032069   4.754726  -0.180199 -35.038047   0.227660 -21.709109   0.081728   1.158778  -2.998359   1.182673  -4.462550  -2.653671  -4.316861  19.727209   0.009630  -0.015784 -10.583968  -4.992104  -0.950618  -0.144448  -0.000250  -0.000829  -5.800593   1.409965   6.465996  17.858194  -0.012276   0.018723  -7.707602   3.893272   0.288893   1.503802  -0.001340  -0.000821
